<svg width="24" height="24" viewBox="0 0 24 24" fill="none" xmlns="http://www.w3.org/2000/svg">
<path d="M18 22H10C9.20435 22 8.44129 21.6839 7.87868 21.1213C7.31607 20.5587 7 19.7956 7 19V18H8V19C8 19.5304 8.21071 20.0391 8.58579 20.4142C8.96086 20.7893 9.46957 21 10 21H18C18.5304 21 19.0391 20.7893 19.4142 20.4142C19.7893 20.0391 20 19.5304 20 19V11C20 10.4696 19.7893 9.96086 19.4142 9.58579C19.0391 9.21071 18.5304 9 18 9H17V8H18C18.7956 8 19.5587 8.31607 20.1213 8.87868C20.6839 9.44129 21 10.2044 21 11V19C21 19.7956 20.6839 20.5587 20.1213 21.1213C19.5587 21.6839 18.7956 22 18 22ZM12 16H4C3.20435 16 2.44129 15.6839 1.87868 15.1213C1.31607 14.5587 1 13.7956 1 13V5C1 4.20435 1.31607 3.44129 1.87868 2.87868C2.44129 2.31607 3.20435 2 4 2H12C12.7956 2 13.5587 2.31607 14.1213 2.87868C14.6839 3.44129 15 4.20435 15 5V13C15 13.7956 14.6839 14.5587 14.1213 15.1213C13.5587 15.6839 12.7956 16 12 16ZM12 15C12.5304 15 13.0391 14.7893 13.4142 14.4142C13.7893 14.0391 14 13.5304 14 13V5C14 4.46957 13.7893 3.96086 13.4142 3.58579C13.0391 3.21071 12.5304 3 12 3H4C3.46957 3 2.96086 3.21071 2.58579 3.58579C2.21071 3.96086 2 4.46957 2 5V13C2 13.5304 2.21071 14.0391 2.58579 14.4142C2.96086 14.7893 3.46957 15 4 15H12Z" fill="black"/>
</svg>
