<svg width="18" height="18" viewBox="0 0 18 18" fill="none" xmlns="http://www.w3.org/2000/svg">
<path d="M3 15.75H15M4.2495 9.89026C3.92957 10.2107 3.74992 10.645 3.75 11.0978V13.5H6.16725C6.62025 13.5 7.0545 13.32 7.37475 12.999L14.4998 5.87026C14.8198 5.5499 14.9996 5.11559 14.9996 4.66276C14.9996 4.20993 14.8198 3.77562 14.4998 3.45526L13.7963 2.75026C13.6376 2.59152 13.4492 2.46561 13.2419 2.37973C13.0345 2.29385 12.8123 2.24969 12.5878 2.24976C12.3634 2.24983 12.1412 2.29413 11.9339 2.38014C11.7266 2.46615 11.5383 2.59217 11.3798 2.75101L4.2495 9.89026Z" stroke="#25B77A" stroke-width="1.5" stroke-linecap="round" stroke-linejoin="round"/>
</svg>
