<svg width="18" height="19" viewBox="0 0 18 19" fill="none" xmlns="http://www.w3.org/2000/svg">
<path d="M0.958359 9.25H16.7084C16.8078 9.25 16.9032 9.21049 16.9735 9.14017C17.0438 9.06984 17.0834 8.97446 17.0834 8.875V6.25C17.0834 6.15148 17.0641 6.05391 17.0265 5.96286C16.9888 5.87182 16.9336 5.78908 16.864 5.71938L11.614 0.469375C11.5443 0.399749 11.4615 0.344539 11.3705 0.306898C11.2795 0.269257 11.1819 0.249923 11.0834 0.25H2.08336C1.68553 0.25 1.304 0.408035 1.0227 0.68934C0.741394 0.970645 0.583359 1.35218 0.583359 1.75V8.875C0.583359 8.97446 0.622868 9.06984 0.693194 9.14017C0.76352 9.21049 0.858903 9.25 0.958359 9.25ZM11.0834 2.125L15.2084 6.25H11.0834V2.125ZM11.4584 17.5497C11.4416 17.7425 11.3525 17.9218 11.2091 18.0517C11.0657 18.1815 10.8784 18.2524 10.6849 18.25H8.08336C7.88445 18.25 7.69368 18.171 7.55303 18.0303C7.41238 17.8897 7.33336 17.6989 7.33336 17.5V12.2753C7.33097 12.0818 7.40183 11.8946 7.53171 11.7511C7.66159 11.6077 7.84089 11.5187 8.03367 11.5019C8.13626 11.4951 8.23916 11.5094 8.33597 11.544C8.43277 11.5787 8.52143 11.6328 8.59642 11.7032C8.67142 11.7735 8.73115 11.8585 8.77191 11.9529C8.81267 12.0473 8.83358 12.1491 8.83336 12.2519V16.7519H10.7084C10.811 16.7517 10.9126 16.7725 11.0069 16.8132C11.1011 16.8538 11.186 16.9134 11.2563 16.9882C11.3266 17.063 11.3808 17.1514 11.4156 17.248C11.4503 17.3446 11.4649 17.4472 11.4584 17.5497ZM5.69367 12.6859L4.12992 14.875L5.69367 17.0641C5.79891 17.226 5.83763 17.4223 5.80178 17.612C5.76592 17.8018 5.65826 17.9704 5.50119 18.0828C5.34413 18.1951 5.14978 18.2426 4.9586 18.2152C4.76743 18.1879 4.59418 18.0878 4.47492 17.9359L3.20836 16.165L1.94367 17.9359C1.88846 18.0209 1.81662 18.0938 1.73247 18.1502C1.64832 18.2066 1.55361 18.2454 1.45407 18.2642C1.35452 18.283 1.25219 18.2814 1.15326 18.2596C1.05433 18.2378 0.960843 18.1962 0.878447 18.1372C0.796051 18.0783 0.726451 18.0032 0.673847 17.9167C0.621243 17.8301 0.586726 17.7337 0.572379 17.6334C0.558031 17.5332 0.56415 17.431 0.590368 17.3331C0.616585 17.2353 0.662357 17.1437 0.724921 17.0641L2.2868 14.875L0.723046 12.6859C0.66326 12.6024 0.621281 12.5074 0.599713 12.407C0.578146 12.3065 0.577449 12.2027 0.597667 12.1019C0.617885 12.0012 0.658586 11.9057 0.717246 11.8213C0.775905 11.737 0.851272 11.6656 0.938671 11.6116C1.1055 11.5133 1.30329 11.4817 1.49244 11.5231C1.68158 11.5644 1.84811 11.6757 1.95867 11.8347L3.20836 13.585L4.47305 11.8141C4.59231 11.6622 4.76556 11.5621 4.95673 11.5348C5.1479 11.5074 5.34225 11.5549 5.49932 11.6672C5.65638 11.7796 5.76405 11.9482 5.7999 12.138C5.83576 12.3277 5.79703 12.524 5.6918 12.6859H5.69367ZM17.0637 16.4041C17.0346 16.6909 16.9424 16.9676 16.7936 17.2145C16.6447 17.4614 16.4431 17.6722 16.203 17.8319C15.7165 18.1562 15.109 18.25 14.5634 18.25C14.0827 18.248 13.6041 18.185 13.1393 18.0625C12.9477 18.0089 12.7853 17.8814 12.6877 17.7081C12.5901 17.5347 12.5654 17.3297 12.619 17.1381C12.6726 16.9465 12.8001 16.7841 12.9734 16.6865C13.1468 16.5889 13.3518 16.5642 13.5434 16.6178C13.954 16.7312 14.944 16.8719 15.3752 16.585C15.4587 16.5288 15.5477 16.4425 15.5768 16.2166C15.6087 15.9662 15.5093 15.8322 14.3787 15.505C13.5021 15.2519 12.0349 14.8272 12.2224 13.3375C12.2514 13.0569 12.3415 12.7861 12.4865 12.5441C12.6315 12.3021 12.8277 12.0948 13.0615 11.9369C14.1715 11.1869 15.9415 11.6266 16.1393 11.6781C16.3317 11.7287 16.4962 11.8537 16.5965 12.0256C16.6968 12.1974 16.7247 12.4021 16.6741 12.5945C16.6235 12.787 16.4986 12.9514 16.3267 13.0517C16.1548 13.1521 15.9502 13.18 15.7577 13.1294C15.3377 13.0197 14.3309 12.8894 13.8996 13.1819C13.8431 13.22 13.7965 13.2712 13.7639 13.331C13.7313 13.3909 13.7135 13.4578 13.7121 13.5259C13.7018 13.6103 13.6999 13.6272 13.8171 13.7041C14.0337 13.8437 14.4218 13.9553 14.7968 14.0641C15.7221 14.3284 17.2709 14.7812 17.0637 16.4041Z" fill="#25B77A"/>
</svg>
